<?xml version="1.0" encoding="iso-8859-1"?>
<!-- Generator: Adobe Illustrator 19.0.0, SVG Export Plug-In . SVG Version: 6.00 Build 0)  -->
<svg version="1.1" id="Layer_1" xmlns="http://www.w3.org/2000/svg" xmlns:xlink="http://www.w3.org/1999/xlink" x="0px" y="0px"
	 viewBox="0 0 512 512" style="enable-background:new 0 0 512 512;" xml:space="preserve">
<g>
	<path style="fill:#D5851F;" d="M149.047,437.393c0-40.825-33.206-74.039-74.02-74.039c-40.82,0-74.029,33.214-74.029,74.039
		c0,40.818,33.209,74.025,74.029,74.025C115.842,511.419,149.047,478.211,149.047,437.393z"/>
	<path style="fill:#D5851F;" d="M9.327,279.833c59.394,0,115.253,23.232,157.285,65.412c42.034,42.253,65.184,98.515,65.184,158.423
		c0,4.562,3.696,8.258,8.258,8.258h94.945c4.562,0,8.258-3.696,8.258-8.258c0-184.901-149.8-335.329-333.931-335.329
		c-4.562,0-8.258,3.696-8.258,8.258v94.976C1.069,276.135,4.767,279.833,9.327,279.833z"/>
	<path style="fill:#D5851F;" d="M9.456,0C4.895,0,1.198,3.696,1.198,8.258v94.959c0,4.562,3.696,8.258,8.258,8.258
		c215.106,0,390.109,175.969,390.109,392.266c0,4.562,3.696,8.258,8.258,8.258h94.92c4.562,0,8.258-3.696,8.258-8.258
		C511.002,225.977,286.009,0,9.456,0z"/>
</g>
<g>
</g>
<g>
</g>
<g>
</g>
<g>
</g>
<g>
</g>
<g>
</g>
<g>
</g>
<g>
</g>
<g>
</g>
<g>
</g>
<g>
</g>
<g>
</g>
<g>
</g>
<g>
</g>
<g>
</g>
</svg>
