<?xml version="1.0" encoding="iso-8859-1"?>
<!-- Generator: Adobe Illustrator 19.0.0, SVG Export Plug-In . SVG Version: 6.00 Build 0)  -->
<svg version="1.1" id="Layer_1" xmlns="http://www.w3.org/2000/svg" xmlns:xlink="http://www.w3.org/1999/xlink" x="0px" y="0px"
	 viewBox="0 0 512 512" style="enable-background:new 0 0 512 512;" xml:space="preserve">
<path style="fill:#EA163F;" d="M482.64,112.714c-17.746-21.094-50.509-29.699-113.078-29.699H142.434
	c-64.002,0-97.32,9.16-114.998,31.618c-17.237,21.897-17.237,54.16-17.237,98.813v85.109c0,86.508,20.45,130.429,132.235,130.429
	h227.129c54.26,0,84.327-7.593,103.779-26.209c19.948-19.089,28.459-50.259,28.459-104.221v-85.109
	C501.801,166.356,500.467,133.902,482.64,112.714z M325.809,267.751l-103.138,53.904c-2.306,1.206-4.827,1.803-7.345,1.803
	c-2.852,0-5.696-0.768-8.216-2.293c-4.745-2.875-7.642-8.018-7.642-13.565V200.138c0-5.537,2.889-10.676,7.625-13.553
	c4.737-2.876,10.629-3.073,15.543-0.52l103.138,53.556c5.247,2.724,8.543,8.142,8.551,14.051
	C334.33,259.589,331.049,265.014,325.809,267.751z"/>
<g>
	<path style="fill:#9C0E2B;" d="M369.563,439.184H142.434c-57.282,0-94.049-11.52-115.709-36.254C3.237,376.11,0,336.915,0,298.555
		v-85.109c0-46.704,0-80.448,19.421-105.121c19.854-25.222,55.493-35.509,123.013-35.509h227.128
		c65.944,0,100.967,9.658,120.882,33.333v-0.001C510.5,129.984,512,164.107,512,213.446v85.109
		c0,57.016-9.453,90.388-31.606,111.589C458.842,430.771,426.733,439.184,369.563,439.184z M142.434,93.215
		c-60.486,0-91.482,8.033-106.985,27.728c-15.051,19.12-15.051,49.902-15.051,92.504v85.109c0,83.14,17.619,120.23,122.036,120.23
		h227.129c51.353,0,79.376-6.773,96.726-23.378c17.743-16.979,25.312-45.944,25.312-96.853v-85.109
		c0-44.845-1.167-75.626-16.766-94.165v-0.001c-15.574-18.514-46.074-26.066-105.273-26.066H142.434V93.215z M215.326,333.657
		c-4.76,0-9.427-1.302-13.498-3.767c-7.749-4.696-12.559-13.236-12.559-22.29V200.138c0-9.042,4.801-17.574,12.528-22.269
		c7.732-4.696,17.517-5.022,25.541-0.854l103.136,53.555c8.653,4.493,14.037,13.341,14.049,23.09
		c0.01,9.755-5.35,18.618-13.991,23.131l-103.136,53.903C223.687,332.632,219.513,333.657,215.326,333.657z M215.329,194.486
		c-1.024,0-2.046,0.274-2.942,0.818c-1.677,1.019-2.72,2.871-2.72,4.834v107.461c0,1.967,1.045,3.823,2.728,4.843
		c1.655,1.003,3.833,1.072,5.55,0.173l103.138-53.904h0.001c1.876-0.98,3.04-2.906,3.038-5.026
		c-0.003-2.114-1.172-4.036-3.052-5.012l-103.138-53.556C217.121,194.695,216.224,194.486,215.329,194.486z"/>
	<path style="fill:#9C0E2B;" d="M341.673,407.968h-9.179c-5.633,0-10.199-4.566-10.199-10.199c0-5.633,4.566-10.199,10.199-10.199
		h9.179c5.633,0,10.199,4.566,10.199,10.199C351.873,403.402,347.306,407.968,341.673,407.968z"/>
	<path style="fill:#9C0E2B;" d="M292.717,407.968H131.57c-5.633,0-10.199-4.566-10.199-10.199c0-5.633,4.566-10.199,10.199-10.199
		h161.147c5.633,0,10.199,4.566,10.199,10.199C302.916,403.402,298.35,407.968,292.717,407.968z"/>
</g>
<g>
</g>
<g>
</g>
<g>
</g>
<g>
</g>
<g>
</g>
<g>
</g>
<g>
</g>
<g>
</g>
<g>
</g>
<g>
</g>
<g>
</g>
<g>
</g>
<g>
</g>
<g>
</g>
<g>
</g>
</svg>
